<svg width="24" height="24" viewBox="0 0 24 24" fill="none" xmlns="http://www.w3.org/2000/svg">
<circle cx="12" cy="12" r="12" fill="#0976B4"/>
<path fill-rule="evenodd" clip-rule="evenodd" d="M7.32528 8.90287C8.15141 8.90287 8.82115 8.29211 8.82115 7.53786C8.82115 6.78295 8.15141 6.17139 7.32528 6.17139C6.49835 6.17139 5.82861 6.78295 5.82861 7.53786C5.82861 8.29211 6.49835 8.90287 7.32528 8.90287Z" fill="white"/>
<path fill-rule="evenodd" clip-rule="evenodd" d="M6.17139 17.6838H8.85539V9.94287H6.17139V17.6838Z" fill="white"/>
<path fill-rule="evenodd" clip-rule="evenodd" d="M12.6225 13.3784C12.6225 12.4907 13.0425 11.6226 14.0467 11.6226C15.051 11.6226 15.2979 12.4907 15.2979 13.3572V17.5849H17.9699V13.1843C17.9699 10.1271 16.1627 9.59998 15.051 9.59998C13.9402 9.59998 13.3275 9.9757 12.6225 10.8861V9.84396H9.94287V17.5849H12.6225V13.3784Z" fill="white"/>
</svg>
